<?xml version="1.0" encoding="utf-8"?>
<!-- Generator: Adobe Illustrator 24.3.0, SVG Export Plug-In . SVG Version: 6.00 Build 0)  -->
<svg version="1.1" id="Layer_1" xmlns="http://www.w3.org/2000/svg" xmlns:xlink="http://www.w3.org/1999/xlink" x="0px" y="0px"
	 viewBox="0 0 2400 1680" style="enable-background:new 0 0 2400 1680;" xml:space="preserve">
<style type="text/css">
	.st0{fill-rule:evenodd;clip-rule:evenodd;fill:transparent;}
	
		.cowboy{fill-rule:evenodd;clip-rule:evenodd;
		fill:none;
		stroke:rgb(129,25,40);
		stroke-width:15;
		stroke-linecap:round;stroke-miterlimit:22.9256;
		stroke-dasharray: 19000;
		stroke-dashoffset:19000;
		animation: dash 15s linear alternate infinite;
}
@keyframes dash{to {stroke-dashoffset:0}}
</style>
<rect class="st0" width="2400" height="1680"/>
<path class="cowboy" d="M26.6,1556.3c191.5-2,383-4,481.1-4.9c98.1-1,102.9-1,103.4-10.9c0.5-10-3.4-29.9-17.3-81.8
	c-13.9-52-37.9-136-42.7-215.2c-4.8-79.2,9.6-153.6,47.2-208.8c37.6-55.2,98.4-91.2,160.8-116.4c62.4-25.2,126.4-39.6,154.9-38.7
	c28.5,0.9,21.4,17,11.9,54.3c-9.5,37.3-21.5,95.7-21.5,164.5s12,148,19.6,198c7.6,50,10.8,70.8,8.4,92
	c-2.4,21.2-10.4,42.8-18.8,62.8c-8.4,20-17.2,38.4-7.6,67.6c9.6,29.2,37.6,69.2,62,90.8c24.4,21.6,45.2,24.8,56.4,19.2
	c11.2-5.6,12.8-20,6.8-34.5c-6-14.5-19.6-29.2-28.4-50.4c-8.8-21.2-12.8-48.9-18.8-70.8c-6-21.9-14-37.9-25.6-35.9
	c-11.6,2-26.8,22-27.6,48c-0.8,26,12.8,58,28.8,85.6c16,27.6,34.4,50.8,40,43.2c5.6-7.6-1.6-46-1.2-75.2c0.4-29.2,8.4-49.2,16.4-86
	c8-36.8,16-90.4,20-136.8c4-46.4,4-85.6,5.2-134.8c1.2-49.2,3.6-108.4,19.2-153.2c15.6-44.8,44.4-75.2,62.4-96
	c18-20.8,25.2-32,23.2,0.8c-2,32.8-13.2,109.6-14,164c-0.8,54.4,8.8,86.4,21.2,65.2c12.4-21.2,27.6-95.6,42.8-135.2
	c15.2-39.6,30.4-44.4,43.6-30.4c13.2,14,24.4,46.8,36.4,28.4c12-18.4,24.8-88,39.2-154.4c14.4-66.4,30.4-129.6,37.6-136.4
	c7.2-6.8,5.6,42.8,12.4,75.2c6.8,32.4,22,47.6,31.6,25.6c9.6-22,13.6-81.2,18.8-140c5.2-58.8,11.6-117.2,24.4-163.2
	c12.8-46,32-79.6,39.2-99.8c7.2-20.2,2.4-26.9-10.9-52.2c-13.3-25.3-35-69.1-35.2-81c-0.2-11.8,21.3,8.3,41,24.3
	c19.7,16,37.6,27.8,50.1,43.7c12.5,15.8,19.5,35.7,21,62.4c1.4,26.7-2.7,60.3-1,54.7c1.8-5.6,9.4-50.4,14.6-60.8
	c5.1-10.4,7.7,13.6,14.1,34.1c6.4,20.5,16.6,37.4,25,24.3c8.3-13.1,14.7-56.3,19-60.3s6.6,31.2,11.4,42.1
	c4.8,10.9,12.2-2.6,15.5-24.3c3.4-21.8,2.7-51.8-8-72.8c-10.7-21-31.5-32.8-50.4-30.9c-18.9,1.9-35.8,17.6-36.5,20.5
	c-0.6,2.9,15-7,32.6-14.6c17.6-7.5,37.1-12.6,51.7-26.9c14.6-14.2,24.2-37.6,29-40.6c4.8-3,4.8,14.2,7.4,33.1
	c2.6,18.9,7.7,39.4,8.2,57.3c0.5,17.9-3.7,33.3-3.8,41.9c-0.2,8.6,3.7,10.6,15.5,18.4c11.8,7.8,31.7,21.6,45.8,33
	c14.1,11.4,22.4,20.3,22.2,33.1c-0.2,12.8-8.8,29.4-12,45.8c-3.2,16.3-1,32.3,18.3,64.5c19.3,32.2,55.6,80.5,57.4,111.8
	c1.8,31.3-31,45.5-57.2,37.5c-26.2-8-45.7-38.2-45.9-51.9c-0.2-13.7,18.8-10.8,35.1,2.9c16.3,13.7,29.9,38.2,37,53.9
	c7.1,15.7,7.6,22.7,2.8,33.5c-4.8,10.8-15,25.4-35.9,23.4c-20.9-2-52.6-20.5-69.2-34.8c-16.6-14.2-18.2-24.2-5-20.2
	c13.3,4,41.4,21.9,57.4,34.1c16,12.2,19.8,18.6,18.9,26.2c-1,7.7-6.7,16.6-19.8,16.8c-13.1,0.2-33.6-8.5-54.6-20.8
	c-21-12.3-42.4-28.3-61.4-46.6c-19-18.2-35.7-38.7-45.4-60c-9.8-21.3-12.6-43.4-1.3-36c11.4,7.4,37,44.2,44.5,67.7
	c7.5,23.5-3,33.8-25.8,37.8c-22.7,4-57.6,1.8-81.8-12.6c-24.2-14.4-37.6-41-46.1-69.9c-8.5-29-12-60.3-14.1-55
	c-2.1,5.3-2.7,47.2,12.6,82.1c15.4,34.9,46.7,62.7,77.4,75.5c30.7,12.8,60.8,10.6,78.1,20.1c17.3,9.5,21.8,30.8,24.4,64.6
	c2.6,33.8,3.4,80.2,3,119.8c-0.4,39.6-2,72.4,4.4,106.4c6.4,34,20.8,69.2,32,102c11.2,32.8,19.2,63.2,11.6,116.4
	c-7.6,53.2-30.8,129.2-40.4,147.6c-9.6,18.4-5.6-20.8-3.2-78c2.4-57.2,3.2-132.4-6.4-205.6c-9.6-73.2-29.6-144.4-40.4-195.2
	c-10.8-50.8-12.4-81.2-13.2-51.2c-0.8,30-0.8,120.4-18.4,197.6c-17.6,77.2-52.8,141.2-75.2,160.8c-22.4,19.6-32-5.2-67.6-76
	c-35.6-70.8-97.2-187.6-127.6-270.4c-30.4-82.8-29.6-131.6-14-185.2c15.6-53.6,46-112,70.2-157.8c24.2-45.8,42.1-78.9,57.3-108.4
	c15.2-29.5,27.7-55.4,24.2-53c-3.5,2.4-23,33.1-34.6,45.3c-11.5,12.2-15,5.8-23.4-7c-8.3-12.8-21.4-32-36.5-42.4
	c-15-10.4-32-12-53.6-24.8c-21.6-12.8-47.8-36.8-62.6-33.8c-14.7,3-17.9,33.1-22.2,60.2c-4.3,27-9.8,51-15,55
	c-5.3,4-10.4-12-23.4-29.8c-13-17.8-33.8-37.3-58.1-53.4c-24.3-16.2-52.2-29-49.6-35c2.6-6.1,35.5-5.4,65.1-9.9
	c29.6-4.5,55.8-14.1,69.8-19.4c13.9-5.3,15.5-6.2,14.7-11.4c-0.8-5.1-4-14.4-5.1-29.9c-1.1-15.5-0.2-37.3,5.3-47.5
	c5.4-10.2,15.4-9,18.2-2.2c2.9,6.7-1.3,18.9-8.3,25.6c-7,6.7-17,8-21.9,0c-5-8-5-25.3-4.6-37.3c0.3-12,1-18.7-1.1-23.2
	c-2.1-4.5-6.9-6.7-23.8-6.4c-17,0.3-46.1,3.2-74.1,1.3c-28-1.9-54.9-8.6-70.6-15.2c-15.7-6.6-20.2-13-4.6-15.8
	c15.5-2.9,51-2.2,90.4,0.8c39.4,3,82.6,8.5,115.7,11.4c33.1,2.9,56.2,3.2,67.5,10.1c11.4,6.9,11,20.3,0.3,24.8
	c-10.7,4.5-31.8,0-52.5-5.9c-20.6-5.9-40.8-13.3-64-17.1c-23.2-3.8-49.4-4.2-66.7-6.2c-17.3-2.1-25.6-5.9-28.3-11
	c-2.7-5.1,0.2-11.5,7.5-21.1c7.4-9.6,19.2-22.4,26.1-34.1c6.9-11.7,8.8-22.2,19.2-24.3c10.4-2.1,29.3,4.3,44.5,7.8
	c15.2,3.5,26.7,4.2,32.2,8.2c5.4,4,4.8,11.4,5.3,22.4c0.5,11,2.1,25.8-1.8,32c-3.8,6.2-13.1,4-29.6,2.1c-16.5-1.9-40.2-3.5-60.5,0.8
	c-20.3,4.3-37.3,14.6-44.6,29.6c-7.4,15-5.1,34.9-3.8,56.3c1.3,21.4,1.6,44.5,14.2,59c12.6,14.6,37.6,20.6,56.6,16.6
	c19-4,32.2-18.1,38.7-26.7c6.6-8.6,6.6-11.8-4.2-7.8c-10.7,4-32.2,15.2-45.4,20.3c-13.3,5.1-18.4,4.2-20.6-1.4
	c-2.2-5.6-1.6-15.8,1.4-20.6c3-4.8,8.5-4.2,14.1-4.5c5.6-0.3,11.4-1.6,8.5-3.4c-2.9-1.8-14.4-4-20.2-6.9c-5.8-2.9-5.8-6.4-5.8-9.9
	c0-3.5,0-7-3.5-7.7c-3.5-0.6-10.6,1.6-14.2,2.1s-4-0.8,0.2-8.8c4.2-8,12.8-22.7,17.1-31.5c4.3-8.8,4.3-11.7-1-13.1
	c-5.3-1.4-15.8-1.4-22.4,3.4c-6.6,4.8-9.1,14.4-9.8,34.4c-0.6,20,0.6,50.4,0.6,68.5c0,18.1-1.3,23.8-22.7,32
	c-21.4,8.2-63,18.7-94.1,39.8c-31,21.1-51.5,52.8-66.7,86.9c-15.2,34.1-25.1,70.6-31.4,100c-6.2,29.4-8.8,51.8,6.2,58.7
	c15,6.9,47.7-1.8,85.8-2.2c38.1-0.5,81.6,7.2,106.2,8.3c24.6,1.1,30.4-4.3,33.8-13.8c3.4-9.4,4.3-22.9,1.1-40.2
	c-3.2-17.3-10.6-38.4-14.6-50.6s-4.6-15.4,8.6-17c13.3-1.6,40.5-1.6,63.8-1.8c23.4-0.2,42.9-0.5,56.8,5c13.9,5.4,22.2,16.6,25,28.2
	c2.7,11.5-0.2,23.4-4.8,28.8s-11,4.5-17.3,0.5c-6.2-4-12.3-11-22.6-17.6c-10.2-6.6-24.6-12.6-27.4-16c-2.7-3.4,6.2-4,13.3-2.6
	c7,1.4,12.2,5,15.4,9.9c3.2,5,4.5,11.4-4.6,12.3c-9.1,1-28.6-3.5-46.2-3.5c-17.6,0-33.3,4.5-42.4,7.8c-9.1,3.4-11.7,5.6-13.9,2.6
	c-2.2-3-4.2-11.4-8-21c-3.8-9.6-9.6-20.5-28.8-19.4c-19.2,1.1-51.8,14.2-70.2,22.1c-18.4,7.8-22.6,10.4-11.2,2.9
	c11.4-7.5,38.2-25.1,58.2-40.2c20-15,33.1-27.5,41.1-46.4c8-18.9,10.9-44.2,15.8-46.1c5-1.9,12,19.5,13.3,37.1
	c1.3,17.6-3.2,31.4,4.6,39.2c7.8,7.8,28,9.8,48.3,10.7c20.3,1,40.8,1,53.6-6.1c12.8-7,17.9-21.1,25.8-28c7.8-6.9,18.4-6.6,30.9-2.4
	c12.5,4.2,26.9,12.2,43.8,21.8c17,9.6,36.5,20.8,47.8,28.6c11.4,7.8,14.6,12.3,9.8,22.1c-4.8,9.8-17.6,24.8-25.7,44.1
	c-8.1,19.3-11.6,42.8-15.6,49.5c-4,6.7-8.5-3.4-10.8-20.1s-2.3-40.1-0.7-59.8c1.6-19.7,4.8-35.7,9.6-41.1
	c4.8-5.4,11.2-0.3,10.9,10.2c-0.3,10.6-7.4,26.6-11.4,30.6c-4,4-5-4-14.4-10.9c-9.4-6.9-27.4-12.6-39-14.4
	c-11.7-1.8-17.1,0.5-23.4-3.8c-6.2-4.3-13.3-15.2-16.2-23c-2.9-7.8-1.6-12.6,0-11.2s3.5,9.1,9,21.6c5.4,12.5,14.4,29.8,6.7,41.9
	c-7.7,12.2-32,19.2-46.1,21.3c-14.1,2.1-17.9-0.8-19.5,28.2c-1.6,29-1,89.8-1.9,124.5c-1,34.7-3.5,43.4-27,46.7
	c-23.5,3.4-68,1.4-115.3,13.1c-47.3,11.6-97.3,36.8-115.9,39.4c-18.6,2.6-5.6-17.5,8.7-49.8c14.3-32.3,30-76.8,33.8-81.2
	c3.8-4.5-4.2,31-7,60c-2.9,29-0.6,51.4,32.5,54.4c33.1,3,97.1-13.3,149.8-22.9c52.6-9.6,93.9-12.5,114.9-19
	c21-6.6,21.6-16.8,27.5-42.1c5.9-25.3,17.1-65.6,16-76c-1.1-10.4-14.6,9.1-24.2,39.7c-9.6,30.6-15.4,72.2-19,109.1
	c-3.6,37-5,69.3,5.8,114.6c10.9,45.4,34.1,103.8,76.5,174.6c42.4,70.8,104,154,138,227.7c34,73.7,40.4,137.9,49.2,170.1
	c8.8,32.1,20,32.1,164.7,33.1c144.7,1,422.8,3,700.9,4.9"/>
</svg>
